PathFileType	4	(X/Y/Z)	C:\Github\BTS_project\Data\sports2d_results\Single_Hop4 Exam_2026-03-06_123833_tvc2_Sports2D\Single_Hop4 Exam_2026-03-06_123833_tvc2_Sports2D_px_person00.trc
DataRate	CameraRate	NumFrames	NumMarkers	Units	OrigDataRate	OrigDataStartFrame	OrigNumFrames
30.0	30.0	11	22	m	30.0	34	278
Frame#	Time	Hip			RHip			RKnee			RAnkle			RBigToe			RSmallToe			RHeel			LHip			LKnee			LAnkle			LBigToe			LSmallToe			LHeel			Neck			Head			Nose			RShoulder			RElbow			RWrist			LShoulder			LElbow			LWrist			
		X1	Y1	Z1	X2	Y2	Z2	X3	Y3	Z3	X4	Y4	Z4	X5	Y5	Z5	X6	Y6	Z6	X7	Y7	Z7	X8	Y8	Z8	X9	Y9	Z9	X10	Y10	Z10	X11	Y11	Z11	X12	Y12	Z12	X13	Y13	Z13	X14	Y14	Z14	X15	Y15	Z15	X16	Y16	Z16	X17	Y17	Z17	X18	Y18	Z18	X19	Y19	Z19	X20	Y20	Z20	X21	Y21	Z21	X22	Y22	Z22
34	1.137424789410349	399.25608699817803	690.4118088563185	0.0	365.6038925775253	691.0444587685959	0.0	366.608619207433	814.1356219380448	0.0	368.6970215168019	928.6048587478365	0.0	359.00544554814326	965.5106199581885	0.0	344.91243813623066	960.7807523894769	0.0	375.1046133388936	942.7722307089549	0.0	433.4229162658528	690.6987864170401	0.0	439.760687944466	812.4696696555957	0.0	441.78697000352577	928.8093631508699	0.0	443.833325421714	969.2378600957829	0.0	462.62606825744217	962.670822512862	0.0	436.8638741252282	942.8168183601604	0.0	404.508669030659	518.982250004645	0.0	416.50553981701984	436.82853610955226	0.0	413.35158758112226	495.3539878533555	0.0	340.78233618524257	523.9839743239313	0.0	292.06003251113856	576.1850002050908	0.0	316.3414050791816	645.6428512750136	0.0	463.7945364248013	529.568272941273	0.0	511.6142948246139	579.8112696654787	0.0	479.30608787636635	641.4697198586454	0.0
35	1.1708784596871242	398.65011305167013	689.9053868249113	0.0	365.26840926513916	690.804351408873	0.0	366.0626036819464	813.9817286706984	0.0	368.36678922076703	928.5236149538604	0.0	359.0143144516148	965.0496974924379	0.0	344.97976914994297	960.8573041540369	0.0	374.6116464624242	942.5021621271118	0.0	432.55330056116077	690.4716348896575	0.0	439.3198949246384	812.0042084117918	0.0	441.9915535713313	928.0746507402982	0.0	443.73408149869374	969.2033187439447	0.0	462.7624571221334	962.9998407677888	0.0	436.62549809254887	942.4603817862908	0.0	403.2921361083975	517.6820105717916	0.0	414.65980986921915	437.1949955352899	0.0	411.9140696699672	495.68386252624276	0.0	339.2110700880395	524.3992908993605	0.0	290.96415157625324	576.4538133814457	0.0	316.0100150722362	646.1051646297387	0.0	462.1397726355093	529.4204058010594	0.0	509.7203848579469	579.0777778303732	0.0	478.78186294052847	640.3071035261013	0.0
36	1.2043321299638992	398.5884627251124	689.0210307077928	0.0	365.1688211358097	690.6263344336481	0.0	365.5648902143707	813.5997928975078	0.0	367.9795869183912	928.0695464539373	0.0	359.89612478160564	964.6719447156773	0.0	345.04275326103897	961.0423183584155	0.0	374.11276876556286	942.2173493293449	0.0	432.26482683115984	690.2329724884631	0.0	439.47237105756267	811.5497064087876	0.0	442.56040938409774	927.5111576687227	0.0	444.0988120468177	969.1393999488187	0.0	463.1598062000443	963.5790930864716	0.0	436.8874170301942	942.1685769279156	0.0	402.1677686724552	516.5301981228478	0.0	413.32911000948843	437.14110613103435	0.0	410.91414784306926	495.5507031261199	0.0	338.10995126509664	524.4616548215068	0.0	290.2130793221738	577.1135992454567	0.0	315.8329788677963	646.7535819784264	0.0	460.58298955463124	529.230779837979	0.0	508.2791855651014	578.7925393504831	0.0	479.068725892376	639.4521237331596	0.0
37	1.237785800240674	398.8152314076562	688.0972377695841	0.0	365.3812136145073	690.7180209597714	0.0	365.4717763486086	812.9659196781569	0.0	367.79347651229784	927.6179929522929	0.0	360.73005857872386	964.5443226454244	0.0	345.03632129346863	960.8111761702868	0.0	374.0452950576291	941.9611750084359	0.0	432.2996538258493	689.9581968063401	0.0	439.95412605046715	810.9144086878074	0.0	443.2357668409522	927.6476049268579	0.0	444.9998796809735	969.3243478529255	0.0	463.37196724502166	964.1931151717221	0.0	437.7974840164969	941.9576618462925	0.0	401.19105437781906	515.9084560644083	0.0	412.64610281892453	436.46734211652625	0.0	410.43651931756756	494.7774513074193	0.0	337.6626837684546	524.3478210346027	0.0	289.8474209188939	577.6070181924234	0.0	315.57511726794934	647.190909520903	0.0	459.39647648462113	528.7688674495454	0.0	507.630940268477	579.0773722456526	0.0	479.65703831575524	638.8791305799507	0.0
38	1.271239470517449	399.33246767528874	687.7386099005528	0.0	365.7563133802791	690.7987459347949	0.0	365.7858439682382	812.8058613239242	0.0	367.81814773480517	927.5539343276488	0.0	360.9754014610477	964.6303080568971	0.0	345.0256171438762	960.4392949979592	0.0	374.19193755565414	941.8014738383847	0.0	432.6605822376819	689.7330980337543	0.0	440.4151927573234	810.5246740847141	0.0	443.6308626337519	928.4314369832796	0.0	445.5668204759369	969.9390814989654	0.0	463.24453676887623	964.675674756855	0.0	438.55424839923194	941.9473092167354	0.0	400.9436820833331	515.882878817354	0.0	412.6614859118315	435.05378588039883	0.0	410.59864280720774	493.4123274076842	0.0	337.70913519282936	524.2299934942425	0.0	289.79794884267625	577.916551702704	0.0	315.56703851957013	647.3314802857205	0.0	458.950675596044	528.2024519594881	0.0	507.6568268434991	579.468266100412	0.0	480.28544102888213	638.4736767873898	0.0
39	1.3046931407942242	400.07632458974206	688.0419232205716	0.0	366.181264276745	690.3804210620909	0.0	366.1576431362751	813.2127387451001	0.0	367.88046982121125	927.6504320962564	0.0	360.7708040910785	964.7376745880431	0.0	345.14219091966527	960.6474553085889	0.0	374.15702874599776	941.8514909965071	0.0	433.46109273060966	689.5704466698155	0.0	440.7905849709281	810.7115167572957	0.0	443.5585793827458	929.2906876461407	0.0	445.4331040237307	970.6762485289587	0.0	462.9709288671798	964.970394008293	0.0	438.5257701245494	942.1333870389367	0.0	401.46581963081655	516.3790228447018	0.0	413.2791518581637	433.33261460297547	0.0	411.2556643457639	491.8483631050357	0.0	338.0829737101075	524.0973936343839	0.0	290.04529452932843	578.1342237442311	0.0	316.12640938078283	647.3137558112134	0.0	459.27392952083153	528.0002354375301	0.0	508.0674764005603	579.643529409597	0.0	480.94273132642377	638.4016245567385	0.0
40	1.338146811070999	400.79835936981806	688.5812071318444	0.0	366.90096020974096	689.6442714775095	0.0	366.4787710485332	813.472840937653	0.0	367.9725094021096	927.7339595934283	0.0	360.2201258576645	964.7200944693262	0.0	345.32397527504025	961.2679002710556	0.0	374.12612341063664	942.2315860972178	0.0	434.44433571194634	689.4118391466659	0.0	441.06902903194936	811.34950894226	0.0	443.1649292022038	929.7741509215898	0.0	445.03833760507166	971.106159421452	0.0	462.71516374967194	965.0760910677373	0.0	438.06882572315044	942.33619607257	0.0	402.2166408940368	516.7819027193632	0.0	414.2235764106413	432.24160716489735	0.0	412.1852238348183	490.53904932750214	0.0	338.85467810008385	524.000880968707	0.0	290.69547467207974	577.9677583577059	0.0	317.2020788564654	647.0583538147251	0.0	460.0862664914235	528.0016634535652	0.0	508.85502031202225	579.7172859654661	0.0	481.5492767892485	638.7943079449597	0.0
41	1.371600481347774	401.5538679607539	688.9342081124765	0.0	368.1585099167196	689.089979243821	0.0	366.9643105891015	813.4507602657799	0.0	368.0855644090236	928.025850125119	0.0	359.64030785160094	964.6716770092723	0.0	345.34863727644404	961.6281125789196	0.0	374.3250125330852	942.8698538454234	0.0	435.35514275206805	689.1542285792856	0.0	441.3052763437151	812.1218892465304	0.0	442.7725293746121	929.9988108729092	0.0	444.75259826825777	971.1764685466953	0.0	462.6045295430405	965.0338834505164	0.0	437.8303635577928	942.5984383857354	0.0	403.14775079333276	516.358450798547	0.0	415.416095360659	432.0139747428039	0.0	413.4782186622858	489.4741849438133	0.0	340.1909304832433	523.9444664056385	0.0	291.9087373011795	577.5258322079336	0.0	318.67127365663544	646.6280421522765	0.0	461.28974926088586	527.8133191494388	0.0	510.26655423748707	579.7278937300733	0.0	482.1879011479191	639.445678128643	0.0
42	1.405054151624549	402.84079253425296	688.982836288553	0.0	369.785020528799	688.7978955836198	0.0	367.745916620722	813.6280969544247	0.0	368.1952675753434	928.3463432194278	0.0	359.51399027615287	964.8013162622988	0.0	345.16390579422665	961.694093182662	0.0	374.67771922110427	943.3221400499064	0.0	436.5192791357372	689.1845087589973	0.0	441.77118134695655	812.8260614397492	0.0	442.5623355091037	930.2254982227441	0.0	444.4576369448219	971.061916854527	0.0	462.5724480443944	964.9238782497015	0.0	437.87120171739804	942.9510370643497	0.0	404.8357488695394	515.441651558098	0.0	417.0932656682643	431.9282625075245	0.0	415.2475656432009	488.4293010478399	0.0	342.26802914081065	523.7969985701998	0.0	293.7209364034946	577.315954991428	0.0	320.42796798520675	646.3963854924267	0.0	463.1129176040816	527.7331204294691	0.0	512.2562690263445	579.6327520719899	0.0	483.38015343620344	640.1625370189147	0.0
43	1.4385078219013239	404.83928047991196	689.0031163127871	0.0	371.4247300742735	688.8270103808682	0.0	368.75618655705085	814.1706020052264	0.0	368.41135701789307	928.3255047167937	0.0	359.76021386069687	965.1426315347679	0.0	344.937295398615	961.774614192748	0.0	375.2502199892882	943.2213565646286	0.0	438.24174814179503	690.1664792376323	0.0	442.6155884032288	813.4837658269776	0.0	442.5370013713195	930.411860912742	0.0	443.8949857208821	970.8104497872419	0.0	462.465386296917	964.7361919484345	0.0	437.92516403499843	943.0214930905406	0.0	407.45707389303504	514.8774008473057	0.0	419.2055018217701	431.76931421508493	0.0	417.37151872966535	487.54096506447445	0.0	345.0118885268499	523.5760695777461	0.0	295.82098127203255	577.4240735737379	0.0	322.3281295614552	646.5071280978439	0.0	465.62637143616837	528.0765147382047	0.0	514.3990143238648	579.7029907607596	0.0	485.3462329871262	640.9886698329383	0.0
44	1.471961492178099	406.94728522202047	689.2465362138377	0.0	372.9395540238023	689.437461544428	0.0	369.8217336112387	814.7922736620882	0.0	368.8211510268161	928.3048760985907	0.0	359.9265879788462	965.5876924052147	0.0	344.8472652917892	961.9222937615858	0.0	376.0779972815383	942.8765426253801	0.0	440.20089681010285	691.7599946054839	0.0	443.66659505686016	814.12664366136	0.0	442.74875642825845	930.4595311306941	0.0	443.28961401723797	970.2657818207433	0.0	462.33228119400906	964.5328208220134	0.0	437.92398705509225	942.8005905009293	0.0	410.4239560661483	514.7046152142364	0.0	421.47828648358916	431.91843467605435	0.0	419.85150071866104	486.8504023706456	0.0	348.0151554772247	523.4862763300856	0.0	297.9421433080327	577.2959084275042	0.0	324.3121623091789	646.5391534091597	0.0	468.5287254239956	528.5066855677179	0.0	516.5776745042879	580.2912819475429	0.0	487.5413560239964	641.8857622741643	0.0
